<svg id="brand-logo" viewBox="0 0 256 256" height="256"><linearGradient id="k" gradientUnits="userSpaceOnUse" x1="60.930756" x2="39.939184" y1="46.727528" y2="58.8487448"><stop offset="0" stop-color="#f7ae1a"/><stop offset="1" stop-color="#e45e25"/></linearGradient><linearGradient id="g-6" gradientUnits="userSpaceOnUse" x1="83.9785752" x2="83.9785752" y1="58.502032" y2="85.9781632"><stop offset="0" stop-color="#e45e25"/><stop offset="1" stop-color="#d2343e"/></linearGradient><linearGradient id="e" gradientUnits="userSpaceOnUse" x1="61.9571632" x2="40.076496" y1="107.0830176" y2="144.9776968"><stop offset="0" stop-color="#d2343e"/><stop offset="1" stop-color="#bb2033"/></linearGradient><linearGradient id="d" gradientUnits="userSpaceOnUse" x1="60.6767288" x2="83.9785752" y1="157.023392" y2="118.5451368"><stop offset="0" stop-color="#ab2333"/><stop offset="1" stop-color="#bb2033"/></linearGradient><linearGradient id="f" gradientUnits="userSpaceOnUse" x1="39.939184" x2="39.939184" y1="194.8150872" y2="143.9684536"><stop offset="0" stop-color="#7b2f44"/><stop offset="1" stop-color="#ab2333"/></linearGradient><linearGradient id="g" gradientUnits="userSpaceOnUse" x1="39.3315784" x2="105.66014" y1="195.1652328" y2="156.8723488"><stop offset="0" stop-color="#7b2f44" stop-opacity=".5"/><stop offset="1" stop-color="#21376d" stop-opacity=".5"/></linearGradient><linearGradient id="a" gradientUnits="userSpaceOnUse" x1="39.3315784" x2="83.9785752" y1="195.1652328" y2="169.3917704"><stop offset="0" stop-color="#7b2f44"/><stop offset="1" stop-color="#4c3d90"/></linearGradient><linearGradient id="h" gradientUnits="userSpaceOnUse" x1="128.0145336" x2="108.9281656" y1="194.8150872" y2="205.83334536"><stop offset="0" stop-color="#005082"/><stop offset="1" stop-color="#21376d"/></linearGradient><linearGradient id="i" gradientUnits="userSpaceOnUse" x1="83.9785752" x2="105.093728" y1="169.3917704" y2="157.195032"><stop offset="0" stop-color="#21376d"/><stop offset="1" stop-color="#005082"/></linearGradient><linearGradient id="c" gradientUnits="userSpaceOnUse" x1="152.5830832" x2="128.0145336" y1="180.6307576" y2="194.8150872"><stop offset="0" stop-color="#023e49"/><stop offset="1" stop-color="#005082"/></linearGradient><linearGradient id="b" gradientUnits="userSpaceOnUse" x1="127.7948344" x2="148.8550624" y1="144.0920344" y2="131.9364896"><stop offset="0" stop-color="#023e49"/><stop offset="1" stop-color="#007e96"/></linearGradient><linearGradient id="j" gradientUnits="userSpaceOnUse" x1="192.321176" x2="172.0539248" y1="157.6824896" y2="169.3917704"><stop offset="0" stop-color="#0a9197"/><stop offset="1" stop-color="#007e96"/></linearGradient><path id="shadow" d="m216.06 171.72-132.11 76.276-44.037-25.424 132.11-76.277z" fill="#2e3436" fill-opacity=".2"/><g id="glogo"><path id="gt12" d="m172.05 169.39v-50.85l44.036 25.425z" fill="url(#j)"/><path id="gt11" d="m172.05 169.39-44.036-25.425 44.036-25.425z" fill="url(#b)"/><path id="gt10" d="m128.01 194.82v-50.85l44.036 25.425z" fill="url(#c)"/><path id="gt9" d="m83.979 169.4 44.036-25.425v50.85z" fill="url(#i)"/><path id="gt8" d="m83.979 220.24 44.036-25.425-44.036-25.425z" fill="url(#h)"/><path id="gt7" d="m39.939 194.82 44.036-25.425v50.85z" fill="url(#a)"/><path id="gt6" d="m39.939 194.82 44.036-25.425v50.85z" fill="url(#g)"/><path id="gt5" d="m39.939 143.97 44.036 25.425-44.036 25.425z" fill="url(#f)"/><path id="gt4" d="m39.939 143.97 44.036-25.425v50.85z" fill="url(#d)"/><path id="gt3" d="m39.939 93.118 44.036 25.425-44.036 25.425z" fill="url(#e)"/><path id="gt2" d="m39.939 58.849 44.036-25.425v50.85z" fill="url(#g-6)"/><path id="gt1" d="m39.939 58.849v-50.85l44.036 25.425z" fill="url(#k)"/></g></svg>