<?xml version="1.0" encoding="UTF-8" standalone="no"?>
<svg
   xmlns:dc="http://purl.org/dc/elements/1.1/"
   xmlns:cc="http://creativecommons.org/ns#"
   xmlns:rdf="http://www.w3.org/1999/02/22-rdf-syntax-ns#"
   xmlns:svg="http://www.w3.org/2000/svg"
   xmlns="http://www.w3.org/2000/svg"
   xmlns:sodipodi="http://sodipodi.sourceforge.net/DTD/sodipodi-0.dtd"
   xmlns:inkscape="http://www.inkscape.org/namespaces/inkscape"
   height="140"
   viewBox="0 0 360 140"
   width="360"
   version="1.1"
   id="svg10"
   sodipodi:docname="amazon-2.svg"
   inkscape:version="1.0 (4035a4fb49, 2020-05-01)">
  <metadata
     id="metadata16">
    <rdf:RDF>
      <cc:Work
         rdf:about="">
        <dc:format>image/svg+xml</dc:format>
        <dc:type
           rdf:resource="http://purl.org/dc/dcmitype/StillImage" />
        <dc:title></dc:title>
      </cc:Work>
    </rdf:RDF>
  </metadata>
  <defs
     id="defs14" />
  <sodipodi:namedview
     inkscape:document-rotation="0"
     pagecolor="#ffffff"
     bordercolor="#666666"
     borderopacity="1"
     objecttolerance="10"
     gridtolerance="10"
     guidetolerance="10"
     inkscape:pageopacity="0"
     inkscape:pageshadow="2"
     inkscape:window-width="1920"
     inkscape:window-height="1164"
     id="namedview12"
     showgrid="false"
     units="px"
     fit-margin-top="0"
     fit-margin-left="0"
     fit-margin-right="0"
     fit-margin-bottom="0"
     inkscape:zoom="0.5188"
     inkscape:cx="330.56842"
     inkscape:cy="42.900002"
     inkscape:window-x="0"
     inkscape:window-y="0"
     inkscape:window-maximized="1"
     inkscape:current-layer="svg10" />
  <g
     clip-rule="evenodd"
     fill-rule="evenodd"
     id="g8"
     transform="matrix(1.1688265,0,0,1.1688265,-177.66091,-274.00355)">
    <path
       d="m 340.3,330.2 c -16.5,12.2 -40.5,18.7 -61.2,18.7 -29,0 -55,-10.7 -74.8,-28.5 -1.5,-1.4 -0.2,-3.3 1.7,-2.2 21.3,12.4 47.6,19.8 74.8,19.8 18.3,0 38.5,-3.8 57.1,-11.7 2.8,-1.1 5.1,1.9 2.4,3.9 z"
       fill="#ff9900"
       id="path2" />
    <path
       d="m 347.2,322.3 c -2.1,-2.7 -14,-1.3 -19.3,-0.6 -1.6,0.2 -1.9,-1.2 -0.4,-2.2 9.5,-6.7 25,-4.7 26.8,-2.5 1.8,2.2 -0.5,17.8 -9.4,25.2 -1.4,1.1 -2.7,0.5 -2.1,-1 2,-5 6.5,-16.1 4.4,-18.9 z"
       fill="#ff9900"
       id="path4" />
    <path
       d="M 328.2,272.5 V 266 c 0,-1 0.7,-1.6 1.6,-1.6 h 29 c 0.9,0 1.7,0.7 1.7,1.6 v 5.5 c 0,0.9 -0.8,2.1 -2.2,4.1 l -15,21.4 c 5.6,-0.1 11.5,0.7 16.5,3.5 1.1,0.6 1.4,1.6 1.5,2.5 v 6.9 c 0,1 -1,2.1 -2.1,1.5 -8.9,-4.7 -20.8,-5.2 -30.6,0.1 -1,0.5 -2.1,-0.5 -2.1,-1.5 v -6.6 c 0,-1 0,-2.8 1.1,-4.4 L 345,274.1 h -15.1 c -0.9,0 -1.7,-0.7 -1.7,-1.6 z m -105.7,40.3 h -8.8 c -0.8,-0.1 -1.5,-0.7 -1.6,-1.5 v -45.2 c 0,-0.9 0.8,-1.6 1.7,-1.6 h 8.2 c 0.9,0 1.5,0.7 1.6,1.5 v 5.9 h 0.2 c 2.1,-5.7 6.2,-8.4 11.6,-8.4 5.5,0 9,2.7 11.4,8.4 2.1,-5.7 7,-8.4 12.2,-8.4 3.7,0 7.7,1.5 10.2,5 2.8,3.8 2.2,9.3 2.2,14.2 v 28.6 c 0,0.9 -0.8,1.6 -1.7,1.6 H 261 c -0.9,-0.1 -1.6,-0.8 -1.6,-1.6 v -24 c 0,-1.9 0.2,-6.7 -0.2,-8.5 -0.7,-3 -2.6,-3.9 -5.2,-3.9 -2.1,0 -4.4,1.4 -5.3,3.7 -0.9,2.3 -0.8,6.1 -0.8,8.7 v 24 c 0,0.9 -0.8,1.6 -1.7,1.6 h -8.8 c -0.9,-0.1 -1.6,-0.8 -1.6,-1.6 v -24 c 0,-5 0.8,-12.5 -5.4,-12.5 -6.3,0 -6.1,7.2 -6.1,12.5 v 24 c -0.1,0.8 -0.8,1.5 -1.8,1.5 z m 163,-49.3 c 13.1,0 20.2,11.2 20.2,25.5 0,13.8 -7.8,24.8 -20.2,24.8 -12.8,0 -19.8,-11.2 -19.8,-25.2 -0.1,-14.1 7,-25.1 19.8,-25.1 z m 0,9.3 c -6.5,0 -6.9,8.9 -6.9,14.4 0,5.5 -0.1,17.3 6.8,17.3 6.8,0 7.2,-9.5 7.2,-15.3 0,-3.8 -0.2,-8.4 -1.3,-12 -1,-3.2 -3,-4.4 -5.8,-4.4 z m 37.1,40 h -8.8 c -0.9,-0.1 -1.6,-0.8 -1.6,-1.6 v -45.3 c 0.1,-0.8 0.8,-1.5 1.7,-1.5 h 8.2 c 0.8,0 1.4,0.6 1.6,1.3 v 6.9 h 0.2 c 2.5,-6.2 5.9,-9.1 12,-9.1 3.9,0 7.8,1.4 10.3,5.3 2.3,3.6 2.3,9.7 2.3,14.1 v 28.5 c -0.1,0.8 -0.8,1.4 -1.7,1.4 H 438 c -0.8,-0.1 -1.5,-0.7 -1.6,-1.4 v -24.6 c 0,-5 0.6,-12.2 -5.5,-12.2 -2.1,0 -4.1,1.4 -5.1,3.6 -1.2,2.8 -1.4,5.5 -1.4,8.6 v 24.4 c -0.1,0.9 -0.9,1.6 -1.8,1.6 z M 305.1,291.2 c 0,3.4 0.1,6.3 -1.6,9.4 -1.4,2.5 -3.6,4 -6.1,4 -3.4,0 -5.4,-2.6 -5.4,-6.4 0,-7.5 6.7,-8.9 13.1,-8.9 z m 8.9,21.5 c -0.6,0.5 -1.4,0.6 -2.1,0.2 -2.9,-2.4 -3.5,-3.6 -5.1,-5.9 -4.8,4.9 -8.3,6.4 -14.5,6.4 -7.4,0 -13.2,-4.6 -13.2,-13.7 0,-7.2 3.9,-12 9.4,-14.4 4.8,-2.1 11.5,-2.5 16.6,-3.1 v -1.1 c 0,-2.1 0.2,-4.6 -1.1,-6.4 -1.1,-1.6 -3.1,-2.3 -4.9,-2.3 -3.4,0 -6.4,1.7 -7.1,5.3 -0.2,0.8 -0.7,1.6 -1.5,1.6 l -8.5,-0.9 c -0.7,-0.2 -1.5,-0.7 -1.3,-1.8 2,-10.4 11.3,-13.5 19.7,-13.5 4.3,0 9.9,1.1 13.3,4.4 4.3,4 3.9,9.4 3.9,15.2 v 13.7 c 0,4.1 1.7,5.9 3.3,8.2 0.6,0.8 0.7,1.8 0,2.3 -1.9,1.5 -5.1,4.3 -6.9,5.8 z M 189.6,291.2 c 0,3.4 0.1,6.3 -1.6,9.4 -1.4,2.5 -3.6,4 -6.1,4 -3.4,0 -5.4,-2.6 -5.4,-6.4 0,-7.5 6.7,-8.9 13.1,-8.9 z m 8.8,21.5 c -0.6,0.5 -1.4,0.6 -2.1,0.2 -2.9,-2.4 -3.5,-3.6 -5.1,-5.9 -4.8,4.9 -8.3,6.4 -14.5,6.4 -7.4,0 -13.2,-4.6 -13.2,-13.7 0,-7.2 3.9,-12 9.4,-14.4 4.8,-2.1 11.5,-2.5 16.6,-3.1 v -1.1 c 0,-2.1 0.2,-4.6 -1.1,-6.4 -1.1,-1.6 -3.1,-2.3 -4.9,-2.3 -3.4,0 -6.4,1.7 -7.1,5.3 -0.2,0.8 -0.7,1.6 -1.5,1.6 l -8.5,-0.9 c -0.7,-0.2 -1.5,-0.7 -1.3,-1.8 2,-10.4 11.3,-13.5 19.7,-13.5 4.3,0 9.9,1.1 13.3,4.4 4.3,4 3.9,9.4 3.9,15.2 v 13.7 c 0,4.1 1.7,5.9 3.3,8.2 0.6,0.8 0.7,1.8 0,2.3 -1.9,1.5 -5.1,4.3 -6.9,5.8 z"
       id="path6" />
  </g>
</svg>
