<?xml version="1.0" encoding="UTF-8" standalone="no"?>
<svg
   xmlns:dc="http://purl.org/dc/elements/1.1/"
   xmlns:cc="http://creativecommons.org/ns#"
   xmlns:rdf="http://www.w3.org/1999/02/22-rdf-syntax-ns#"
   xmlns:svg="http://www.w3.org/2000/svg"
   xmlns="http://www.w3.org/2000/svg"
   xmlns:sodipodi="http://sodipodi.sourceforge.net/DTD/sodipodi-0.dtd"
   xmlns:inkscape="http://www.inkscape.org/namespaces/inkscape"
   inkscape:version="1.0 (4035a4fb49, 2020-05-01)"
   sodipodi:docname="facebook-inc-logo-2019-1.svg"
   id="svg4"
   version="1.1"
   width="637.12726"
   viewBox="0 -107.97377 232.24903 141.6119"
   height="105.70043">
  <metadata
     id="metadata10">
    <rdf:RDF>
      <cc:Work
         rdf:about="">
        <dc:format>image/svg+xml</dc:format>
        <dc:type
           rdf:resource="http://purl.org/dc/dcmitype/StillImage" />
        <dc:title></dc:title>
      </cc:Work>
    </rdf:RDF>
  </metadata>
  <defs
     id="defs8" />
  <sodipodi:namedview
     inkscape:current-layer="svg4"
     inkscape:window-maximized="0"
     inkscape:window-y="130"
     inkscape:window-x="1023"
     inkscape:cy="76.907383"
     inkscape:cx="260.27808"
     inkscape:zoom="0.2524"
     fit-margin-bottom="20"
     fit-margin-right="20"
     fit-margin-left="20"
     fit-margin-top="20"
     showgrid="false"
     id="namedview6"
     inkscape:window-height="1030"
     inkscape:window-width="798"
     inkscape:pageshadow="2"
     inkscape:pageopacity="0"
     guidetolerance="10"
     gridtolerance="10"
     objecttolerance="10"
     borderopacity="1"
     bordercolor="#666666"
     pagecolor="#ffffff" />
  <path
     style="stroke-width:1"
     id="path2"
     fill-rule="evenodd"
     fill="#687b81"
     d="m -220.40042,-78.389821 v 11.155002 c 0,0.727 -0.485,1.211 -1.212,1.211 h -47.849 v 22.795 h 39.492 c 0.727,0 1.21,0.486 1.21,1.213 v 11.155 c 0,0.727 -0.483,1.212 -1.21,1.212 h -39.492 V 4.0561808 c 0,0.728 -0.482,1.212 -1.21,1.212 h -11.994 c -0.726,-10e-4 -1.21,-0.485 -1.21,-1.213 V -78.388821 c 0,-0.727 0.484,-1.213 1.21,-1.213 h 61.053 c 0.727,0 1.212,0.486 1.212,1.213 m 72.255,47.768002 c -4.42,-12.245 -9.325,-24.491 -14.355,-35.646 h -2.845 c -5.028,11.155 -9.994,23.401 -14.415,35.646 z m 25.379,35.8879998 h -13.204 c -0.727,0 -1.21,-0.365 -1.392,-1.092 a 327.277,327.277 0 0 0 -6.3,-21.7019998 h -40.52 c -2.422,7.397 -4.544,14.7299998 -6.24,21.7019998 -0.18,0.727 -0.665,1.092 -1.391,1.092 h -12.72 c -0.848,0 -1.333,-0.485 -1.09,-1.333 7.631,-27.0379998 19.26,-56.8629998 31.01,-81.9600018 0.546,-1.153 1.212,-1.576 2.363,-1.576 h 17.2 c 1.151,0 1.818,0.423 2.363,1.576 11.872,25.036002 23.32,54.922002 31.011,81.9600018 0.243,0.848 -0.242,1.333 -1.09,1.333 z m 21.681,-41.7069998 c 0,-26.31 17.321999,-44.739002 42.034029,-44.739002 h 1.816 c 15.507,0 27.5,7.881 33.857991,19.278002 0.42401,0.727 0.30201,1.334 -0.42399,1.697 l -10.660001,5.274 c -0.726,0.364 -1.636,0.364 -2.12,-0.545 -4.48,-7.76 -11.205,-11.882 -21.138,-11.882 h -1.817 c -15.56603,0 -26.28603,12.367 -26.28603,30.311 0,18.003 10.539,30.0679998 26.28603,30.0679998 h 1.817 c 10.176,0 16.112,-3.4559998 20.654,-8.7299998 0.606,-0.667 1.272,-0.787 1.999,-0.424 l 10.962001,5.335 c 0.424,0.241 0.605,0.544 0.605,0.8469998 0,0.305 -0.12,0.547 -0.362,0.91 -6.722001,9.82 -18.837001,15.883 -33.615011,15.883 h -1.81699 c -25.13703,0 -41.792029,-17.2769998 -41.792029,-43.2829998 M 73.105609,-7.0988192 v 11.154 c 0,0.728 -0.48501,1.212 -1.212,1.212 H 8.2976095 c -0.727,0 -1.212,-0.484 -1.212,-1.212 V -78.388821 c 0,-0.727 0.485,-1.213 1.212,-1.213 H 70.802609 c 0.72899,0 1.213,0.486 1.213,1.213 v 11.155002 c 0,0.727 -0.48401,1.211 -1.213,1.211 h -49.30201 v 22.066 h 40.09601 c 0.72699,0 1.212,0.485 1.212,1.213 v 11.033 c 0,0.727 -0.48501,1.213 -1.212,1.213 h -40.09601 v 22.1869998 h 50.39301 c 0.72699,0 1.212,0.484 1.212,1.213 M 167.8306,-19.284819 c 0,-7.88 -5.20899,-11.458 -16.656,-11.458 h -28.52699 v 22.7939998 h 28.52699 c 11.63001,0 16.656,-3.3949998 16.656,-11.3359998 m -20.714,-47.104 h -24.47 v 22.794 h 24.47 c 10.963,0 15.99,-3.576 15.99,-11.396 0,-7.821 -5.027,-11.398 -15.99,-11.398 m 35.493,48.376 c 0,14.8519998 -11.387,23.2799998 -31.495,23.2799998 h -41.67099 c -0.727,0 -1.212,-0.486 -1.212,-1.212 V -78.388821 c 0,-0.73 0.485,-1.214 1.212,-1.214 h 37.976 c 19.56299,0 30.22299,7.760002 30.22299,21.946002 0,9.335 -4.724,15.458 -14.293,18.307 13.44501,2.849 19.26,10.912 19.26,21.338 m 70.80101,11.0339998 c 17.38299,0 28.34499,-11.9429998 28.34499,-30.1899998 0,-18.246 -10.962,-30.19 -28.34499,-30.19 h -1.81801 c -17.383,0 -28.34499,11.944 -28.34499,30.19 0,18.247 10.96199,30.1899998 28.34499,30.1899998 z M 207.9856,-37.167819 c 0,-25.582 16.958,-44.010002 43.607,-44.010002 h 1.81801 c 26.64999,0 43.60899,18.428002 43.60899,44.010002 0,25.582 -16.96,44.0109998 -43.61,44.0109998 h -1.817 c -26.64999,0 -43.607,-18.4289998 -43.607,-44.0099998 z m 159.04898,30.1899998 c 17.38201,0 28.34402,-11.9429998 28.34402,-30.1899998 0,-18.246 -10.96201,-30.19 -28.34402,-30.19 h -1.81999 c -17.381,0 -28.343,11.944 -28.343,30.19 0,18.247 10.962,30.1899998 28.34402,30.1899998 z m -45.427,-30.1899998 c 0,-25.582 16.96003,-44.010002 43.60803,-44.010002 h 1.81897 c 26.65003,0 43.60904,18.428002 43.60904,44.010002 0,25.582 -16.96003,44.0109998 -43.61,44.0109998 h -1.81801 c -26.648,0 -43.60803,-18.4289998 -43.60803,-44.0099998 z M 515.11861,5.2671808 h -15.62598 c -1.03005,0 -1.45305,-0.243 -2.12201,-1.03 -10.96003,-12.912 -23.92301,-25.7639998 -34.94604,-35.2219998 h -7.02496 V 4.0551808 c 0,0.728 -0.48403,1.212 -1.21199,1.212 h -11.993 c -0.72504,0 -1.21002,-0.484 -1.21002,-1.212 V -78.388821 c 0,-0.727 0.48397,-1.213 1.21002,-1.213 h 11.993 c 0.72796,0 1.21199,0.486 1.21199,1.213 v 33.463002 h 7.146 c 11.81195,-10.67 22.714,-22.188 31.61598,-33.766002 0.60602,-0.789 1.09101,-0.91 1.81801,-0.91 h 14.778 c 0.72796,0 1.09,0.364 1.09,0.85 0,0.242 -0.12002,0.545 -0.42301,0.909 -13.02298,16.064002 -25.92201,29.220002 -37.855,39.404002 a 365.543,365.543 0 0 1 42.21702,42.1909998 c 0.664,0.789 0.30095,1.516 -0.66801,1.516" />
</svg>
