<svg xmlns="http://www.w3.org/2000/svg" id="svg4" version="1.1" width="637.127" viewBox="0 -107.974 232.249 141.612" height="105.7"><path id="path2" fill-rule="evenodd" fill="#687b81" d="M-220.4-78.39v11.155c0 .727-.485 1.211-1.212 1.211h-47.85v22.795h39.493c.727 0 1.21.486 1.21 1.213v11.155c0 .727-.483 1.212-1.21 1.212h-39.492V4.056c0 .728-.482 1.212-1.21 1.212h-11.994c-.726 0-1.21-.485-1.21-1.213v-82.444c0-.727.484-1.213 1.21-1.213h61.053c.727 0 1.212.486 1.212 1.213m72.255 47.768c-4.42-12.245-9.325-24.49-14.355-35.646h-2.845c-5.028 11.155-9.994 23.401-14.415 35.646zm25.379 35.888h-13.204c-.727 0-1.21-.365-1.392-1.092a327.277 327.277 0 00-6.3-21.702h-40.52c-2.422 7.397-4.544 14.73-6.24 21.702-.18.727-.665 1.092-1.391 1.092h-12.72c-.848 0-1.333-.485-1.09-1.333 7.63-27.038 19.26-56.863 31.01-81.96.546-1.153 1.212-1.576 2.363-1.576h17.2c1.15 0 1.818.423 2.363 1.576 11.872 25.036 23.32 54.922 31.01 81.96.244.848-.241 1.333-1.09 1.333zm21.68-41.707c0-26.31 17.323-44.739 42.035-44.739h1.816c15.507 0 27.5 7.881 33.858 19.278.424.727.302 1.334-.424 1.697l-10.66 5.274c-.726.364-1.636.364-2.12-.545-4.48-7.76-11.205-11.882-21.138-11.882h-1.817c-15.566 0-26.286 12.367-26.286 30.311 0 18.003 10.539 30.068 26.286 30.068h1.817c10.176 0 16.112-3.456 20.654-8.73.606-.667 1.272-.787 1.999-.424l10.962 5.335c.424.241.605.544.605.847 0 .305-.12.547-.362.91C-30.583.78-42.698 6.843-57.476 6.843h-1.817c-25.137 0-41.792-17.277-41.792-43.283M73.105-7.099V4.055c0 .728-.484 1.212-1.211 1.212H8.298c-.727 0-1.212-.484-1.212-1.212v-82.444c0-.727.485-1.213 1.212-1.213h62.505c.729 0 1.213.486 1.213 1.213v11.155c0 .727-.484 1.211-1.213 1.211H21.5v22.066h40.096c.727 0 1.212.485 1.212 1.213v11.033c0 .727-.485 1.213-1.212 1.213H21.5V-8.31h50.393c.727 0 1.212.484 1.212 1.213m94.725-12.187c0-7.88-5.21-11.458-16.656-11.458h-28.527v22.794h28.527c11.63 0 16.656-3.395 16.656-11.336m-20.714-47.104h-24.47v22.794h24.47c10.963 0 15.99-3.576 15.99-11.396s-5.027-11.398-15.99-11.398m35.493 48.376c0 14.852-11.387 23.28-31.495 23.28h-41.671c-.727 0-1.212-.486-1.212-1.212v-82.444c0-.73.485-1.214 1.212-1.214h37.976c19.563 0 30.223 7.76 30.223 21.946 0 9.335-4.724 15.458-14.293 18.307 13.445 2.85 19.26 10.912 19.26 21.338m70.8 11.034c17.384 0 28.346-11.943 28.346-30.19 0-18.246-10.962-30.19-28.345-30.19h-1.818c-17.383 0-28.345 11.944-28.345 30.19 0 18.247 10.962 30.19 28.345 30.19zm-45.424-30.19c0-25.582 16.958-44.01 43.607-44.01h1.818c26.65 0 43.609 18.428 43.609 44.01 0 25.582-16.96 44.011-43.61 44.011h-1.817c-26.65 0-43.607-18.429-43.607-44.01zm159.049 30.19c17.382 0 28.344-11.943 28.344-30.19 0-18.246-10.962-30.19-28.344-30.19h-1.82c-17.381 0-28.343 11.944-28.343 30.19 0 18.247 10.962 30.19 28.344 30.19zm-45.427-30.19c0-25.582 16.96-44.01 43.608-44.01h1.819c26.65 0 43.609 18.428 43.609 44.01 0 25.582-16.96 44.011-43.61 44.011h-1.818c-26.648 0-43.608-18.429-43.608-44.01zm193.51 42.435h-15.625c-1.03 0-1.453-.243-2.122-1.03-10.96-12.912-23.923-25.764-34.946-35.222H455.4v35.04c0 .728-.484 1.212-1.212 1.212h-11.993c-.725 0-1.21-.484-1.21-1.212v-82.444c0-.727.484-1.213 1.21-1.213h11.993c.728 0 1.212.486 1.212 1.213v33.463h7.146c11.812-10.67 22.714-22.188 31.616-33.766.606-.789 1.09-.91 1.818-.91h14.778c.728 0 1.09.364 1.09.85 0 .242-.12.545-.423.91-13.023 16.063-25.922 29.22-37.855 39.403a365.543 365.543 0 0142.217 42.191c.664.79.3 1.516-.668 1.516" stroke-width="1"/></svg>