<svg enable-background="new 0 0 120 60" height="48" viewBox="0 0 160 48" width="160" xmlns="http://www.w3.org/2000/svg"><path d="m23.619308 39.29878 16.828827-16.832679h-12.236709l-10.708557 10.712401z" fill="#39cefd" stroke-width=".0383"/><path d="m120.6 540 519.3-519.3h319.5l-679 679.1z" fill="#39cefd" transform="matrix(.03829956 0 0 .03829961 3.703537 3.316296)"/><path d="m639.9 1059.3h319.5l-279.6-279.6-159.8 159.8z" fill="#03569b" transform="matrix(.03829956 0 0 .03829961 3.703537 3.316296)"/><path d="m17.502869 33.174672 6.120269-6.120278 6.12027 6.120278-6.12027 6.124108z" fill="#16b9fd" stroke-width=".0383"/><g fill="#808080" stroke-width="1.29358"><path d="m58.677534 12.566955h13.54369v2.594594h-10.705965v8.043244h9.674064v2.594594h-9.674064v10.118919h-2.708738v-23.351351z"/><path d="m75.445912 12.566955h2.708737v23.481081h-2.708737z"/><path d="m88.344664 36.566955c-2.063801 0-3.482664-.648649-4.643551-1.816216-1.0319-1.167568-1.54785-2.854055-1.54785-4.92973v-10.508108h2.708737v10.118919c0 1.556756.386963 2.724324 1.031901 3.502702.773925.778379 1.676837 1.167568 2.966713 1.167568.902912 0 1.805825-.25946 2.450762-.778378.773926-.518919 1.289876-1.167568 1.676838-1.945946.386963-.778379.644938-1.686487.644938-2.594595v-9.47027h2.708738v16.735135h-2.579751v-2.464865h-.128987c-.51595.778378-1.160888 1.556757-2.192788 2.075676-.902913.648648-1.934813.908108-3.0957.908108z"/><path d="m107.17684 36.307495c-.64494 0-1.28987-.129729-1.93481-.389189-.51595-.259459-1.0319-.518919-1.41886-.908108-.38697-.389189-.77393-.908108-1.0319-1.427027-.25798-.518919-.38697-1.167568-.38697-1.945946v-9.859459h-2.96671v-2.464865h2.96671v-4.670271h2.70874v4.670271h3.99861v2.464865h-3.99861v9.081081c0 .908108.12899 1.556756.51595 2.075675s1.0319.778379 1.80583.778379c.64493 0 1.28987-.12973 1.80582-.518919v2.724324c-.38696.12973-.64494.25946-1.0319.389189 0 0-.51595 0-1.0319 0z"/><path d="m118.91471 36.307495c-.64494 0-1.28988-.129729-1.93482-.389189-.51595-.259459-1.0319-.518919-1.41886-.908108s-.77392-.908108-1.0319-1.427027c-.25797-.518919-.38696-1.167568-.38696-1.945946v-9.859459h-2.70874v-2.464865h2.96671v-4.670271h2.70874v4.670271h3.99861v2.464865h-3.99861v9.081081c0 .908108.12899 1.556756.51595 2.075675s1.0319.778379 1.80583.778379c.64493 0 1.28987-.12973 1.80582-.518919v2.724324c-.38696.12973-.64494.25946-1.0319.389189-.25797 0-.77392 0-1.28987 0z"/><path d="m131.16852 36.566955c-1.54785 0-2.96671-.389189-4.25659-1.167568-1.28987-.778378-2.19279-1.816216-2.96671-3.113513-.64494-1.297298-1.0319-2.854054-1.0319-4.540541 0-1.556757.38696-3.113513 1.0319-4.410811.64494-1.297297 1.67684-2.464865 2.83772-3.243243 1.16089-.778378 2.57975-1.167567 4.25659-1.167567s3.0957.389189 4.25659 1.167567 2.0638 1.686487 2.70874 2.983784 1.0319 2.724324 1.0319 4.410811c0 .389189 0 .648648-.12899.908108h-13.28571c.12898 1.297297.38696 2.335135.90291 3.243243s1.28987 1.556757 2.0638 1.945946c.90291.389189 1.67684.648649 2.57975.648649 2.19279 0 3.74064-1.037838 4.90153-2.983784l2.32177 1.167567c-.77392 1.297298-1.67684 2.464865-2.96671 3.243244-1.0319.518919-2.45076.908108-4.25659.908108zm4.77254-10.637838c0-.648649-.25798-1.427027-.64494-2.075676-.38696-.648648-.90291-1.297297-1.67684-1.816216-.77392-.518919-1.67683-.778378-2.83772-.778378-1.28988 0-2.45077.389189-3.35368 1.297297-.90291.778378-1.41886 1.945946-1.80582 3.372973z"/><path d="m142.13246 19.312901h2.57975v2.724324h.12899c.38696-.908108.90291-1.686486 1.93481-2.205405.90291-.648649 1.93481-.908108 2.96671-.908108.77393 0 1.41887.129729 1.93482.389189v2.983783c-.64494-.389189-1.41887-.518918-2.32178-.518918-.77392 0-1.54785.259459-2.19279.648648-.64493.518919-1.16089 1.037838-1.67684 1.816216-.38696.778379-.64493 1.556757-.64493 2.464865v9.340541h-2.70874z"/></g></svg>