<svg height="48" viewBox="0 0 160 48" width="160" xmlns="http://www.w3.org/2000/svg"><path d="M23.62 39.299l16.828-16.833H28.211L17.503 33.18zM8.322 23.998L28.212 4.11h12.236L14.443 30.12z" fill="#39cefd"/><path d="M28.211 43.887h12.237L29.74 33.18l-6.12 6.12z" fill="#03569b"/><path d="M17.503 33.175l6.12-6.12 6.12 6.12-6.12 6.124z" fill="#16b9fd"/><g fill="gray" stroke-width="1.294"><path d="M58.678 12.567H72.22v2.595H61.515v8.043h9.674v2.594h-9.674v10.12h-2.708V12.566zM75.446 12.567h2.709v23.481h-2.71zM88.345 36.567c-2.064 0-3.483-.649-4.644-1.816-1.032-1.168-1.548-2.854-1.548-4.93V19.313h2.709v10.119c0 1.557.387 2.724 1.032 3.503.774.778 1.677 1.167 2.967 1.167.903 0 1.805-.26 2.45-.778.774-.52 1.29-1.168 1.677-1.946.387-.779.645-1.687.645-2.595v-9.47h2.709v16.735h-2.58v-2.465h-.129c-.516.779-1.16 1.557-2.193 2.076-.903.648-1.934.908-3.095.908zM107.177 36.307a5.15 5.15 0 01-1.935-.389c-.516-.26-1.032-.519-1.419-.908a5.758 5.758 0 01-1.032-1.427c-.258-.519-.387-1.167-.387-1.946v-9.86h-2.966v-2.464h2.966v-4.67h2.709v4.67h3.999v2.465h-3.999v9.08c0 .909.129 1.558.516 2.077s1.032.778 1.806.778c.645 0 1.29-.13 1.806-.519v2.724c-.387.13-.645.26-1.032.39h-1.032zM118.915 36.307a5.15 5.15 0 01-1.935-.389c-.516-.26-1.032-.519-1.419-.908s-.774-.908-1.032-1.427-.387-1.167-.387-1.946v-9.86h-2.709v-2.464h2.967v-4.67h2.709v4.67h3.998v2.465h-3.998v9.08c0 .909.129 1.558.516 2.077s1.032.778 1.806.778c.645 0 1.29-.13 1.805-.519v2.724c-.386.13-.644.26-1.031.39h-1.29zM131.169 36.567c-1.548 0-2.967-.39-4.257-1.168-1.29-.778-2.193-1.816-2.967-3.113-.645-1.297-1.032-2.854-1.032-4.54 0-1.557.387-3.114 1.032-4.411a8.616 8.616 0 012.838-3.244c1.16-.778 2.58-1.167 4.257-1.167s3.095.389 4.256 1.167 2.064 1.687 2.709 2.984 1.032 2.724 1.032 4.41c0 .39 0 .65-.13.909h-13.285c.129 1.297.387 2.335.903 3.243s1.29 1.557 2.064 1.946c.903.39 1.677.649 2.58.649 2.192 0 3.74-1.038 4.901-2.984l2.322 1.168c-.774 1.297-1.677 2.464-2.967 3.243-1.032.519-2.45.908-4.256.908zm4.772-10.638c0-.649-.258-1.427-.645-2.076-.387-.648-.903-1.297-1.677-1.816-.774-.519-1.677-.778-2.837-.778-1.29 0-2.451.389-3.354 1.297-.903.779-1.419 1.946-1.806 3.373zM142.132 19.313h2.58v2.724h.13c.386-.908.902-1.686 1.934-2.205.903-.649 1.935-.908 2.967-.908.774 0 1.419.13 1.935.389v2.984c-.645-.39-1.42-.52-2.322-.52-.774 0-1.548.26-2.193.65-.645.518-1.16 1.037-1.677 1.816-.387.778-.645 1.556-.645 2.464v9.341h-2.709z"/></g></svg>