<svg enable-background="new 0 0 2486.4 2292.1" version="1.1" viewBox="0 0 542 126" xmlns="http://www.w3.org/2000/svg"><path d="m0.75515 0.38863c-0.7602 0.31811-0.7107 1.102-0.71221 1.8001v120.73c0 0.66877-0.17459 1.6559 0.18031 2.2553 0.36594 0.6179 1.1289 0.55121 1.7501 0.55243h110.38c1.745 0 5.486 0.71213 6.9934-0.1804 1.1118-0.65824 0.55248-3.9497 0.55248-5.0842v-96.868c0-1.0908 0.59163-5.0584-0.55168-5.5915-0.92263-0.43029-1.9694 1.3558-2.4607 1.9063l-36.267 40.713c-0.76813 0.85971-1.6172 2.0841-2.8369 1.1726l-13.69-14.159c-1.7753-1.82-5.1323-4.1004-6.0896-6.493-0.35912-0.89813 0.67848-1.8265 1.178-2.4568 1.4723-1.8577 2.9204-3.7375 4.3668-5.6155 0.4553-0.59138 1.096-1.7422 1.9519-1.7538 1.0994-0.01476 2.1347 1.7487 2.8071 2.4557 2.3892 2.5124 4.6702 5.144 6.9899 7.7214 0.74363 0.82619 2.0518 2.9952 3.3633 2.7443 0.98228-0.18795 1.5966-1.4822 2.1329-2.2178l27.927-38.256c0.51273-0.71598 1.6814-1.8105 1.4446-2.7844-0.16344-0.67173-0.92987-0.70775-1.4955-0.7228-1.5187-0.040359-3.0435-0.002008-4.5626-0.002008h-95.991c-2.0488 0-5.4678-0.66157-7.3601 0.13026m252.34 96.212h5.7911v-70.545c-1.2303 0-4.5381-0.58929-5.5103 0.18039l-0.2808 70.365m-102.31-6.844c0 1.1747-0.52658 4.0332 0.18041 4.9901 0.51564 0.69791 2.3553 0.7825 3.1538 0.94131 3.0731 0.61103 6.1795 1.1619 9.3008 1.4521 10.031 0.93252 24.047 1.0431 28.353-10.367 0.84061-2.2234 0.95295-4.3207 0.95295-6.6685 0-1.9144-0.18784-3.7938-0.82475-5.6155-4.8697-13.966-23.338-9.5805-31.583-19.479-3.8492-4.6211-2.4027-12.027 2.2241-15.485 3.937-2.9424 8.5385-3.6708 13.337-3.4608 4.6786 0.20497 9.085 1.4792 13.688 2.099v-5.2646c-8.3004-1.1178-16.583-3.3298-24.919-0.97781-10.428 2.9424-16.156 15.453-10.45 25.019 6.343 10.634 21.842 7.6789 29.548 16.32 5.5119 6.1827 1.976 14.971-5.0594 17.82-8.6256 3.4943-19.211 0.36114-27.902-1.3244m227.43-58.17c-5.1698 1.0798-3.5254 8.5464 1.7549 7.5482 4.7856-0.90463 2.8798-8.5163-1.7549-7.5482m-50.189 23.6-0.33513-3.8607-0.29657-1.5745-4.6329-0.1804v46.855h5.791v-33.693c0-0.81619-0.26504-2.2167 0.18072-2.935 0.7879-1.2707 3.9186-2.0548 5.2593-2.6312 4.9189-2.1164 14.765-6.0304 18.989-0.72124 2.6621 3.3456 1.8935 8.2898 1.8935 12.254v28.078h4.2116c0.45991-1.81e-4 1.2478 0.13144 1.5741-0.2813 0.47216-0.59613 0.18081-2.1536 0.18081-2.8774v-29.482c0-4.1903 0.0181-8.7769-3.0411-12.079-6.2702-6.7724-17.793-2.0869-24.686 0.87375-1.6776 0.72037-3.3395 1.7508-5.0892 2.255m127.93 0-0.47548-4.0362-0.33171-1.399-2.3515-0.1804-2.1006 0.28132-0.18081 3.2284v43.521h5.791v-33.869c0-0.90025-0.26665-2.3303 0.18081-3.1405 0.71944-1.3039 3.2746-2.1418 4.5574-2.7827 4.4433-2.2201 12.407-5.2851 16.362-0.53927 2.7744 3.3304 1.8882 8.1006 1.8882 12.078v28.253h5.9664v-33.869c0-0.90025-0.26666-2.3303 0.18081-3.1405 0.70719-1.2821 3.1271-2.0663 4.3819-2.6939 4.4486-2.2238 12.449-5.3653 16.357-0.4531 2.6621 3.3458 1.8936 8.2898 1.8936 12.254v27.902h5.7909v-26.498c0-4.5983 0.69323-9.7986-0.79313-14.214-2.0234-6.0132-8.3585-7.8432-14.123-6.9424-5.5541 0.86777-9.7447 4.2627-14.741 6.4159-0.51232-1.2291-1.1897-2.368-2.1128-3.3341-7.3633-7.7016-18.788-0.71441-26.14 3.1586m-217.43 39.484c-0.10532-0.83654 0.0683-3.9011-0.63179-4.3659-0.72296-0.47926-3.6044 0.79618-4.4574 1.0094-3.6203 0.90498-7.6652 1.5783-11.407 1.2209-9.0656-0.8662-13.863-8.5939-13.863-17.168h31.588c1.281-6.7969 0.38773-15.781-4.2696-21.231-6.1807-7.236-19.744-6.3993-26.265-0.17128-2.3269 2.2224-3.9765 5.2323-5.0802 8.241-3.6536 9.9664-2.8902 25.31 6.6597 31.808 7.853 5.343 19.305 3.9063 27.727 0.65737m69.492-4.5626c-2.1042 0.18374-4.2346 1.1475-6.3176 1.5789-6.9879 1.4471-15.945 1.7929-20.441-4.9131-0.95999-1.4321-1.7901-3.0873-2.2954-4.7381-0.67567-2.2008-0.95467-4.3745-0.95467-6.6685h27.2c0.94944 0 3.3202 0.43082 4.0818-0.18039 1.1319-0.90866 0.48079-4.994 0.48079-6.3126 0-6.9392-2.1496-14.876-8.9497-18.095-2.6234-1.2421-5.2049-1.5599-8.0723-1.5599-4.9978 0-9.6816 1.1715-13.512 4.5932-2.6042 2.3262-4.238 5.6742-5.3856 8.9193-2.9096 8.2242-2.4586 18.554 1.9497 26.147 4.9873 8.5865 15.52 9.3827 24.319 7.969 2.0181-0.3243 4.0168-0.73879 5.9665-1.3609 0.59314-0.18917 1.7303-0.35588 2.0988-0.90656 0.58792-0.88041-0.16836-3.4055-0.16836-4.4731m67.913 6.493h5.791v-47.03l-5.6103 0.28132c-0.42413 15.57-0.18072 31.17-0.18072 46.749m53.874-5.791 0.33512 4.0362 0.29657 1.5745 4.6329 0.1804v-47.03h-5.791v33.167c0 0.9471 0.27719 2.4178-0.10532 3.2969-0.59133 1.3567-4.2064 2.3608-5.5102 2.919-4.9995 2.1393-14.464 6.3412-18.916 1.1538-2.4094-2.8087-1.7917-6.6348-1.7917-10.002v-28.253c0-0.55296 0.21414-1.7091-0.28081-2.1009-0.62296-0.49258-2.2954-0.1804-3.0534-0.1804-0.64052 0-1.6372-0.1839-2.2252 0.10583-0.71593 0.35185-0.40711 2.0467-0.40711 2.702v30.184c0 4.4435 0.18252 9.223 3.6852 12.443 2.1918 2.0151 5.3874 2.4733 8.2478 2.4731 4.9487-3.52e-4 9.5798-1.5167 14.039-3.5639 2.2357-1.0262 4.4768-2.4228 6.844-3.1045m-195.14-19.83h-26.498c0.95296-5.1321 1.0652-10.237 5.14-14.137 4.582-4.3856 14.33-4.8669 18.263 0.6249 2.713 3.7866 3.0956 9.0358 3.0956 13.512m69.843 0h-26.323c0-4.5351 1.0705-9.6344 4.0888-13.161 4.2345-4.9473 13.774-6.162 18.473-1.1986 3.422 3.6147 3.7606 9.6791 3.7606 14.36m-271.48-12.585c5.046-0.59526 10.951 1.3695 15.267 3.837 1.1437 0.65405 3.8333 1.8821 4.0921 3.3105 0.24497 1.3519-2.1303 3.6935-2.8902 4.7355-0.61563 0.84408-1.2378 2.0799-2.1099 2.6774-1.3616 0.93288-4.0117-1.7292-5.234-2.3643-3.8432-1.997-8.8772-3.1475-13.161-2.1286-2.2555 0.53648-4.6148 2.2446-4.553 4.7988 0.1024 4.2169 7.6378 5.0923 10.695 5.8565 5.2896 1.3225 11.257 2.6014 15.26 6.6098 6.2495 6.2577 4.3568 17.911-2.8009 22.617-2.7865 1.8321-6.0109 2.8553-9.3007 3.2986-6.9318 0.93378-14.542 0.30501-20.707-3.2868-1.5405-0.89744-4.8927-2.4033-5.4776-4.2103-0.2534-0.78266 0.44666-1.5183 0.86391-2.1051 1.1312-1.5911 2.5746-4.8087 4.295-5.7589 1.4056-0.77635 4.5026 2.45 5.7587 3.1508 4.2273 2.3586 9.972 3.7017 14.741 2.3575 2.1559-0.60771 4.6523-2.0843 5.061-4.4875 0.73851-4.3413-5.1036-5.6484-8.2197-6.4275-5.7358-1.4339-12.689-2.3959-17.198-6.5742-7.584-7.028-4.4023-19.678 4.7382-23.674 3.6559-1.5983 7.0075-1.775 10.88-2.232m36.852 36.627c0.16184 7.5927 9.0743 10.083 15.092 8.2968 1.3965-0.41451 2.7804-0.96518 4.0361-1.7077 0.60137-0.35554 1.3442-1.0189 2.099-0.89936 0.59686 0.0946 0.9637 0.70212 1.2843 1.1544 0.86863 1.2259 2.3189 2.7632 2.7432 4.2113 0.45379 1.5492-2.5976 2.7514-3.6697 3.2909-4.1411 2.0839-9.4003 3.1733-14.039 2.6256-5.3044-0.62615-10.084-2.6506-13.635-6.7938-8.5395-9.9629-4.9067-26.448 6.9669-31.884 10.035-4.5949 22.182 0.13373 26.073 10.475 0.97996 2.6046 1.474 5.4706 1.4784 8.2478 0 0.75197 0.34596 1.9379-0.1512 2.5765-0.43381 0.55735-1.3348 0.40678-1.9546 0.40678h-26.323m18.602-6.844c-0.02108-7.4717-8.9414-10.723-14.741-7.0037-1.7106 1.0971-2.9866 2.793-3.6222 4.7223-0.16264 0.49364-0.57346 1.5197-0.22669 2z" fill="#44af2a"/></svg>
