<svg viewBox="0 0 542 126" xmlns="http://www.w3.org/2000/svg"><path d="M.755.389c-.76.318-.71 1.102-.712 1.8v120.73c0 .669-.175 1.656.18 2.255.366.618 1.13.551 1.75.552h110.38c1.745 0 5.486.713 6.994-.18 1.112-.658.552-3.95.552-5.084V23.594c0-1.09.592-5.059-.551-5.592-.923-.43-1.97 1.356-2.461 1.907L80.62 60.622c-.768.86-1.617 2.084-2.837 1.172l-13.69-14.159c-1.775-1.82-5.132-4.1-6.09-6.493-.359-.898.679-1.826 1.178-2.457a512.587 512.587 0 004.367-5.615c.455-.591 1.096-1.742 1.952-1.754 1.1-.015 2.135 1.749 2.807 2.456 2.39 2.512 4.67 5.144 6.99 7.721.744.826 2.052 2.995 3.363 2.745.983-.188 1.597-1.483 2.133-2.218L108.72 3.764c.513-.716 1.682-1.81 1.445-2.785-.164-.671-.93-.707-1.496-.722-1.518-.04-3.043-.002-4.562-.002H8.116c-2.05 0-5.468-.662-7.36.13m252.34 96.212h5.79V26.052c-1.23 0-4.537-.59-5.51.18l-.28 70.365m-102.31-6.844c0 1.175-.527 4.033.18 4.99.516.698 2.355.783 3.154.942 3.073.61 6.18 1.162 9.3 1.452 10.032.932 24.048 1.043 28.354-10.367.84-2.224.953-4.321.953-6.669 0-1.914-.188-3.794-.825-5.615-4.87-13.966-23.338-9.58-31.583-19.48-3.85-4.62-2.403-12.026 2.224-15.484 3.937-2.943 8.538-3.671 13.337-3.461 4.679.205 9.085 1.48 13.688 2.099v-5.265c-8.3-1.117-16.583-3.33-24.919-.977-10.428 2.942-16.156 15.453-10.45 25.019 6.343 10.634 21.842 7.678 29.548 16.32 5.512 6.182 1.976 14.97-5.06 17.82-8.625 3.494-19.21.36-27.901-1.325m227.43-58.17c-5.17 1.08-3.526 8.547 1.754 7.548 4.786-.904 2.88-8.516-1.754-7.548m-50.19 23.6l-.335-3.86-.296-1.575-4.633-.18v46.855h5.791V62.729c0-.817-.265-2.217.18-2.935.789-1.271 3.92-2.055 5.26-2.632 4.919-2.116 14.765-6.03 18.989-.72 2.662 3.345 1.893 8.289 1.893 12.253v28.078h4.212c.46 0 1.248.132 1.574-.281.472-.596.181-2.154.181-2.878V64.132c0-4.19.018-8.777-3.041-12.079-6.27-6.772-17.793-2.087-24.686.874-1.678.72-3.34 1.75-5.09 2.255m127.93 0l-.475-4.036-.332-1.4-2.351-.18-2.1.282-.181 3.228v43.521h5.79V62.728c0-.9-.266-2.33.181-3.14.72-1.304 3.275-2.142 4.558-2.783 4.443-2.22 12.407-5.285 16.362-.54 2.774 3.331 1.888 8.101 1.888 12.079v28.253h5.966v-33.87c0-.9-.266-2.33.181-3.14.707-1.282 3.127-2.066 4.382-2.694 4.449-2.223 12.45-5.365 16.357-.453 2.662 3.346 1.894 8.29 1.894 12.254v27.902h5.79V70.098c0-4.598.694-9.798-.793-14.214-2.023-6.013-8.358-7.843-14.123-6.942-5.554.868-9.744 4.263-14.74 6.416-.513-1.23-1.19-2.368-2.113-3.334-7.364-7.702-18.788-.715-26.14 3.158m-217.43 39.484c-.106-.836.068-3.9-.632-4.366-.723-.479-3.605.797-4.458 1.01-3.62.905-7.665 1.578-11.407 1.22-9.065-.866-13.863-8.593-13.863-17.167h31.588c1.281-6.797.388-15.781-4.27-21.231-6.18-7.236-19.743-6.4-26.264-.172-2.327 2.223-3.977 5.233-5.08 8.241-3.654 9.967-2.89 25.31 6.66 31.808 7.852 5.343 19.304 3.907 27.726.658m69.492-4.563c-2.104.184-4.234 1.148-6.317 1.58-6.988 1.446-15.945 1.792-20.441-4.914-.96-1.432-1.79-3.087-2.296-4.738-.675-2.2-.954-4.375-.954-6.669h27.2c.95 0 3.32.431 4.082-.18 1.131-.909.48-4.994.48-6.313 0-6.939-2.15-14.876-8.95-18.095-2.623-1.242-5.204-1.56-8.072-1.56-4.997 0-9.681 1.172-13.512 4.594-2.604 2.326-4.238 5.674-5.385 8.919-2.91 8.224-2.459 18.554 1.95 26.147 4.987 8.586 15.52 9.383 24.318 7.969 2.019-.324 4.017-.739 5.967-1.36.593-.19 1.73-.357 2.099-.907.588-.88-.169-3.406-.169-4.474m67.913 6.493h5.791v-47.03l-5.61.282c-.424 15.57-.18 31.17-.18 46.749m53.873-5.791l.335 4.036.297 1.574 4.633.18v-47.03h-5.791v33.168c0 .947.277 2.418-.105 3.297-.592 1.356-4.207 2.36-5.51 2.919-5 2.139-14.465 6.34-18.917 1.154-2.409-2.81-1.791-6.635-1.791-10.002V51.849c0-.553.214-1.71-.281-2.101-.623-.493-2.296-.18-3.054-.18-.64 0-1.637-.185-2.225.105-.716.352-.407 2.047-.407 2.702V82.56c0 4.444.183 9.223 3.685 12.443 2.192 2.015 5.388 2.473 8.248 2.473 4.949 0 9.58-1.517 14.04-3.564 2.235-1.026 4.476-2.423 6.843-3.104m-195.14-19.83h-26.498c.953-5.132 1.065-10.237 5.14-14.137 4.582-4.386 14.33-4.867 18.263.625 2.713 3.786 3.096 9.035 3.096 13.512m69.843 0h-26.323c0-4.535 1.07-9.635 4.089-13.161 4.234-4.948 13.774-6.162 18.473-1.199 3.422 3.615 3.76 9.68 3.76 14.36M33.028 58.392c5.046-.595 10.951 1.37 15.267 3.837 1.144.654 3.833 1.882 4.092 3.31.245 1.352-2.13 3.694-2.89 4.736-.616.844-1.238 2.08-2.11 2.677-1.361.933-4.012-1.729-5.234-2.364-3.843-1.997-8.877-3.147-13.16-2.128-2.256.536-4.616 2.244-4.554 4.798.103 4.217 7.638 5.093 10.695 5.857 5.29 1.322 11.257 2.601 15.26 6.61 6.25 6.257 4.357 17.91-2.8 22.617-2.787 1.832-6.012 2.855-9.301 3.298-6.932.934-14.542.305-20.707-3.287-1.54-.897-4.893-2.403-5.478-4.21-.253-.783.447-1.518.864-2.105 1.131-1.591 2.574-4.809 4.295-5.759 1.405-.776 4.502 2.45 5.759 3.151 4.227 2.359 9.972 3.702 14.74 2.357 2.156-.607 4.653-2.084 5.062-4.487.738-4.341-5.104-5.648-8.22-6.428-5.736-1.433-12.69-2.395-17.198-6.574-7.584-7.028-4.402-19.678 4.738-23.674 3.656-1.598 7.008-1.775 10.88-2.232M69.88 95.02c.162 7.593 9.074 10.083 15.092 8.297 1.397-.414 2.78-.965 4.036-1.708.602-.355 1.344-1.019 2.1-.899.596.095.963.702 1.283 1.154.87 1.226 2.32 2.764 2.744 4.212.453 1.549-2.598 2.751-3.67 3.29-4.141 2.084-9.4 3.174-14.039 2.626-5.304-.626-10.084-2.65-13.635-6.794-8.54-9.963-4.907-26.448 6.967-31.884 10.035-4.595 22.182.134 26.073 10.475.98 2.605 1.474 5.471 1.478 8.248 0 .752.346 1.938-.15 2.577-.435.557-1.336.406-1.956.406H69.88m18.602-6.844c-.02-7.471-8.94-10.723-14.74-7.003-1.711 1.097-2.987 2.793-3.623 4.722-.162.494-.573 1.52-.226 2z" fill="#44af2a"/></svg>