<svg id="brand-name" viewBox="0 0 560 64"><g stroke-width="0"><path d="M74.012 40.579v46.55h-3.418v-46.55zM91.074 40.579v3.906h-4.069V40.58zm-.326 12.37v34.18H87.33v-34.18zM106.83 83.124q5.24.944 9.473.944 13.346 0 13.346-14.941 0-12.923-12.272-12.923-4.688 0-10.547 1.758zm-3.418-42.546h3.418v13.997q6.152-1.628 10.579-1.628 15.56 0 15.56 16.406 0 17.773-16.374 17.773-7.357 0-13.184-1.4z" transform="translate(-40.5 -32)"/><g class="brand-name-strong" stroke-width="2"><g stroke-linecap="round" stroke-linejoin="round"><path d="M147.76 40.579v3.906h-4.069V40.58zm-.326 12.37v34.18h-3.418v-34.18zM160.1 87.128v-34.18h2.441l.358 4.297q5.241-4.297 11.361-4.297 8.073 0 10.45 4.688 5.891-4.688 11.946-4.688 11.458 0 11.458 11.361v22.819h-3.418V64.309q0-8.3-8.072-8.3-6.446 0-10.645 4.426v26.693h-3.418V63.756q0-7.747-8.334-7.747-6.054 0-10.71 4.427v26.693zM221.92 69.908q0 14.616 12.533 14.616t12.533-14.616q0-14.355-12.533-14.355T221.92 69.908zm-3.418.13q0-17.415 15.951-17.415t15.951 17.415q0 17.383-15.951 17.383-15.885 0-15.951-17.383zM264.21 83.124q5.24.944 9.473.944 13.346 0 13.346-14.941 0-12.923-12.272-12.923-4.688 0-10.547 1.758zm-3.418-42.546h3.418v13.997q6.152-1.628 10.579-1.628 15.56 0 15.56 16.406 0 17.773-16.374 17.773-7.357 0-13.184-1.4zM305.13 40.579v3.906h-4.069V40.58zm-.326 12.37v34.18h-3.418v-34.18zM321.54 40.579v46.55h-3.418v-46.55zM347.98 52.949q14.03 0 14.03 15.527 0 1.107-.065 2.311H336q0 13.411 14.193 13.411 5.827 0 10.352-1.627v2.93q-4.525 1.627-10.352 1.627-17.611 0-17.611-17.48 0-16.7 15.397-16.7zm-11.979 14.779h22.721q-.195-11.914-10.742-11.914-11.393 0-11.979 11.914z" transform="translate(-40.5 -32)"/></g><path d="M397.3 57.962q-4.948-1.758-10.286-1.758-12.598 0-12.598 12.923 0 14.941 12.598 14.941 5.339 0 10.286-1.27zm3.418 27.116q-5.566 2.05-14.03 2.05-15.918 0-15.918-17.772 0-16.406 16.211-16.406 5.078 0 10.319 1.627V40.58h3.418zM427.41 52.949q14.03 0 14.03 15.527 0 1.107-.065 2.311H415.43q0 13.411 14.193 13.411 5.827 0 10.352-1.627v2.93q-4.525 1.627-10.352 1.627-17.611 0-17.611-17.48 0-16.7 15.397-16.7zm-11.979 14.779h22.721q-.195-11.914-10.742-11.914-11.393 0-11.979 11.914zM447.84 52.949h3.906l12.5 31.217 12.565-31.217h3.907l-14.551 34.18h-3.972zM493.15 40.579v3.906h-4.069V40.58zm-.326 12.37v34.18h-3.418v-34.18zM531.13 86.152q-4.232.977-9.115.977-17.253 0-17.253-17.741 0-16.44 17.253-16.44 4.883 0 9.115.977v2.93q-4.557-.977-8.79-.977-13.834 0-13.834 13.51 0 14.81 13.835 14.81 4.232 0 8.789-.976zM555.38 52.949q14.03 0 14.03 15.527 0 1.107-.065 2.311H543.4q0 13.411 14.193 13.411 5.827 0 10.352-1.627v2.93q-4.525 1.627-10.352 1.627-17.611 0-17.611-17.48 0-16.7 15.397-16.7zm-11.979 14.779h22.721q-.195-11.914-10.742-11.914-11.393 0-11.979 11.914z" transform="translate(-40.5 -32)"/></g></g></svg>