<svg id="brand-name" enable-background="new 0 0 283.5 283.5" viewBox="0 0 560 64"><g stroke-width="0" transform="translate(-40.5 -32)"><g><path d="m74.012 40.579v46.55h-3.418v-46.55z"/><path d="m91.074 40.579v3.9063h-4.069v-3.9063zm-.32552 12.37v34.18h-3.418v-34.18z"/><path d="m106.83 83.124q5.2409.94401 9.4727.94401 13.346 0 13.346-14.941 0-12.923-12.272-12.923-4.6875 0-10.547 1.7578zm-3.418-42.546h3.418v13.997q6.1523-1.6276 10.579-1.6276 15.56 0 15.56 16.406 0 17.773-16.374 17.773-7.3568 0-13.184-1.3997z"/></g><g class="brand-name-strong" stroke-width="2"><g stroke-linecap="round" stroke-linejoin="round"><path d="m147.76 40.579v3.9063h-4.069v-3.9063zm-.32553 12.37v34.18h-3.418v-34.18z"/><path d="m160.1 87.128v-34.18h2.4414l.35808 4.2969q5.2409-4.2969 11.361-4.2969 8.0729 0 10.449 4.6875 5.8919-4.6875 11.947-4.6875 11.458 0 11.458 11.361v22.819h-3.418v-22.819q0-8.3008-8.0729-8.3008-6.4453 0-10.645 4.4271v26.693h-3.418v-23.372q0-7.7474-8.3333-7.7474-6.0547 0-10.71 4.4271v26.693z"/><path d="m221.92 69.908q0 14.616 12.533 14.616t12.533-14.616q0-14.355-12.533-14.355t-12.533 14.355zm-3.418.13021q0-17.415 15.951-17.415t15.951 17.415q0 17.383-15.951 17.383-15.885 0-15.951-17.383z"/><path d="m264.21 83.124q5.2409.94401 9.4727.94401 13.346 0 13.346-14.941 0-12.923-12.272-12.923-4.6875 0-10.547 1.7578zm-3.418-42.546h3.418v13.997q6.1524-1.6276 10.579-1.6276 15.56 0 15.56 16.406 0 17.773-16.374 17.773-7.3568 0-13.184-1.3997z"/><path d="m305.13 40.579v3.9063h-4.069v-3.9063zm-.32552 12.37v34.18h-3.418v-34.18z"/><path d="m321.54 40.579v46.55h-3.418v-46.55z"/><path d="m347.98 52.949q14.03 0 14.03 15.527 0 1.1068-.0651 2.3112h-25.944q0 13.411 14.193 13.411 5.8268 0 10.352-1.6276v2.9297q-4.5247 1.6276-10.352 1.6276-17.611 0-17.611-17.48 0-16.699 15.397-16.699zm-11.979 14.779h22.721q-.19531-11.914-10.742-11.914-11.393 0-11.979 11.914z"/></g><path d="m397.3 57.962q-4.9479-1.7578-10.286-1.7578-12.598 0-12.598 12.923 0 14.941 12.598 14.941 5.3386 0 10.286-1.2695zm3.418 27.116q-5.5664 2.0508-14.03 2.0508-15.918 0-15.918-17.773 0-16.406 16.211-16.406 5.0781 0 10.319 1.6276v-13.997h3.418z"/><path d="m427.41 52.949q14.03 0 14.03 15.527 0 1.1068-.0651 2.3112h-25.944q0 13.411 14.193 13.411 5.8268 0 10.352-1.6276v2.9297q-4.5248 1.6276-10.352 1.6276-17.611 0-17.611-17.48 0-16.699 15.397-16.699zm-11.979 14.779h22.721q-.19531-11.914-10.742-11.914-11.393 0-11.979 11.914z"/><path d="m447.84 52.949h3.9063l12.5 31.217 12.565-31.217h3.9063l-14.551 34.18h-3.9714z"/><path d="m493.15 40.579v3.9063h-4.069v-3.9063zm-.32552 12.37v34.18h-3.418v-34.18z"/><path d="m531.13 86.152q-4.2318.97656-9.1146.97656-17.253 0-17.253-17.741 0-16.439 17.253-16.439 4.8828 0 9.1146.97656v2.9297q-4.5573-.97656-8.7891-.97656-13.835 0-13.835 13.509 0 14.811 13.835 14.811 4.2318 0 8.7891-.97656z"/><path d="m555.38 52.949q14.03 0 14.03 15.527 0 1.1068-.0651 2.3112h-25.944q0 13.411 14.193 13.411 5.8268 0 10.352-1.6276v2.9297q-4.5247 1.6276-10.352 1.6276-17.611 0-17.611-17.48 0-16.699 15.397-16.699zm-11.979 14.779h22.721q-.19531-11.914-10.742-11.914-11.393 0-11.979 11.914z"/></g></g></svg>