<svg height="793.7" viewBox="0 0 793.7 793.7" width="793.7" xmlns="http://www.w3.org/2000/svg"><g stroke-width=".1"><path d="M140.302 195.414V47.284l128.284 74.065z" fill="#f7ae1a"/><path d="M140.302 195.414l128.284-74.065v148.13z" fill="#e45e25"/><path d="M140.302 295.288l128.284 74.065-128.284 74.065z" fill="#d2343e"/><path d="M140.302 443.418l128.284-74.065v148.13z" fill="#bb2033"/><path d="M140.302 443.418l128.284 74.065-128.284 74.065z" fill="#ab2333"/></g><g fill="#2e3436" fill-opacity=".2"><path d="M140.233 672.342l128.281-74.065.002 148.128zM268.547 746.393l128.285-74.065-128.285-74.065z"/><path d="M268.422 598.297l128.285-74.065v148.13zM396.777 672.35V524.22l128.285 74.066zM525.088 598.279l-128.281-74.065L525.09 450.15z"/><path d="M524.99 598.286v-148.13l128.286 74.065z"/></g><g stroke-width=".1"><path d="M140.302 591.548l128.284-74.065v148.13z" fill="#7b2f44"/><path d="M268.543 665.613l128.284-74.065-128.284-74.065z" fill="#21376d"/><path d="M268.543 517.483l128.284-74.065v148.13z" fill="#005082"/><path d="M396.895 591.548v-148.13l128.284 74.065z" fill="#023e49"/><path d="M525.108 517.483l-128.283-74.065 128.283-74.065z" fill="#007e96"/></g><path d="M525.108 517.483v-148.13l128.284 74.065z" fill="#0a9197"/></svg>