<svg id="brand-logo" viewBox="0 0 256 256" height="256"><linearGradient id="k" gradientUnits="userSpaceOnUse" x1="60.931" x2="39.939" y1="46.728" y2="58.849"><stop offset="0" stop-color="#f7ae1a"/><stop offset="1" stop-color="#e45e25"/></linearGradient><linearGradient id="g-6" gradientUnits="userSpaceOnUse" x1="83.979" x2="83.979" y1="58.502" y2="85.978"><stop offset="0" stop-color="#e45e25"/><stop offset="1" stop-color="#d2343e"/></linearGradient><linearGradient id="e" gradientUnits="userSpaceOnUse" x1="61.957" x2="40.076" y1="107.083" y2="144.978"><stop offset="0" stop-color="#d2343e"/><stop offset="1" stop-color="#bb2033"/></linearGradient><linearGradient id="d" gradientUnits="userSpaceOnUse" x1="60.677" x2="83.979" y1="157.023" y2="118.545"><stop offset="0" stop-color="#ab2333"/><stop offset="1" stop-color="#bb2033"/></linearGradient><linearGradient id="f" gradientUnits="userSpaceOnUse" x1="39.939" x2="39.939" y1="194.815" y2="143.968"><stop offset="0" stop-color="#7b2f44"/><stop offset="1" stop-color="#ab2333"/></linearGradient><linearGradient id="g" gradientUnits="userSpaceOnUse" x1="39.332" x2="105.66" y1="195.165" y2="156.872"><stop offset="0" stop-color="#7b2f44" stop-opacity=".5"/><stop offset="1" stop-color="#21376d" stop-opacity=".5"/></linearGradient><linearGradient id="a" gradientUnits="userSpaceOnUse" x1="39.332" x2="83.979" y1="195.165" y2="169.392"><stop offset="0" stop-color="#7b2f44"/><stop offset="1" stop-color="#4c3d90"/></linearGradient><linearGradient id="h" gradientUnits="userSpaceOnUse" x1="128.015" x2="108.928" y1="194.815" y2="205.833"><stop offset="0" stop-color="#005082"/><stop offset="1" stop-color="#21376d"/></linearGradient><linearGradient id="i" gradientUnits="userSpaceOnUse" x1="83.979" x2="105.094" y1="169.392" y2="157.195"><stop offset="0" stop-color="#21376d"/><stop offset="1" stop-color="#005082"/></linearGradient><linearGradient id="c" gradientUnits="userSpaceOnUse" x1="152.583" x2="128.015" y1="180.631" y2="194.815"><stop offset="0" stop-color="#023e49"/><stop offset="1" stop-color="#005082"/></linearGradient><linearGradient id="b" gradientUnits="userSpaceOnUse" x1="127.795" x2="148.855" y1="144.092" y2="131.936"><stop offset="0" stop-color="#023e49"/><stop offset="1" stop-color="#007e96"/></linearGradient><linearGradient id="j" gradientUnits="userSpaceOnUse" x1="192.321" x2="172.054" y1="157.682" y2="169.392"><stop offset="0" stop-color="#0a9197"/><stop offset="1" stop-color="#007e96"/></linearGradient><path id="shadow" d="M216.06 171.72L83.95 247.996l-44.037-25.424 132.11-76.277z" fill="#2e3436" fill-opacity=".2"/><g id="glogo"><path id="gt12" d="M172.05 169.39v-50.85l44.036 25.425z" fill="url(#j)"/><path id="gt11" d="M172.05 169.39l-44.036-25.425 44.036-25.425z" fill="url(#b)"/><path id="gt10" d="M128.01 194.82v-50.85l44.036 25.425z" fill="url(#c)"/><path id="gt9" d="M83.979 169.4l44.036-25.425v50.85z" fill="url(#i)"/><path id="gt8" d="M83.979 220.24l44.036-25.425-44.036-25.425z" fill="url(#h)"/><path id="gt7" d="M39.939 194.82l44.036-25.425v50.85z" fill="url(#a)"/><path id="gt6" d="M39.939 194.82l44.036-25.425v50.85z" fill="url(#g)"/><path id="gt5" d="M39.939 143.97l44.036 25.425-44.036 25.425z" fill="url(#f)"/><path id="gt4" d="M39.939 143.97l44.036-25.425v50.85z" fill="url(#d)"/><path id="gt3" d="M39.939 93.118l44.036 25.425-44.036 25.425z" fill="url(#e)"/><path id="gt2" d="M39.939 58.849l44.036-25.425v50.85z" fill="url(#g-6)"/><path id="gt1" d="M39.939 58.849V7.999l44.036 25.425z" fill="url(#k)"/></g></svg>