<svg height="720" viewBox="0 0 1280 720" width="1280" xmlns="http://www.w3.org/2000/svg" xmlns:xlink="http://www.w3.org/1999/xlink"><linearGradient id="a" gradientTransform="rotate(60.2 208.833 1079.921) scale(19.7)" gradientUnits="userSpaceOnUse" spreadMethod="pad" x1="0" x2="1" y1="0" y2="0"><stop offset="0" stop-color="#d9d9de"/><stop offset="1" stop-color="#b6b6bb"/></linearGradient><linearGradient id="b" gradientUnits="userSpaceOnUse" x1="204.42" x2="242.45" xlink:href="#p" y1="585.42" y2="585.42"/><linearGradient id="c" gradientUnits="userSpaceOnUse" x1="286.28" x2="292.62" xlink:href="#p" y1="631.84" y2="631.84"/><linearGradient id="d" gradientUnits="userSpaceOnUse" x1="297.37" x2="303.71" xlink:href="#p" y1="639.73" y2="639.73"/><linearGradient id="e" gradientUnits="userSpaceOnUse" x1="308.46" x2="314.8" xlink:href="#p" y1="647.23" y2="647.23"/><linearGradient id="f" gradientUnits="userSpaceOnUse" x1="319.99" x2="326.33" xlink:href="#p" y1="655.17" y2="655.17"/><linearGradient id="g" gradientUnits="userSpaceOnUse" x1="331.66" x2="338" xlink:href="#p" y1="662.44" y2="662.44"/><linearGradient id="h" gradientUnits="userSpaceOnUse" x1="343.1" x2="349.44" xlink:href="#p" y1="670.47" y2="670.47"/><linearGradient id="i" gradientUnits="userSpaceOnUse" x1="92.56" x2="98.9" xlink:href="#p" y1="501.82" y2="501.82"/><linearGradient id="j" gradientUnits="userSpaceOnUse" x1="103.65" x2="109.99" xlink:href="#p" y1="509.76" y2="509.76"/><linearGradient id="k" gradientUnits="userSpaceOnUse" x1="114.74" x2="121.08" xlink:href="#p" y1="517.21" y2="517.21"/><linearGradient id="l" gradientUnits="userSpaceOnUse" x1="126.27" x2="132.61" xlink:href="#p" y1="525.15" y2="525.15"/><linearGradient id="m" gradientUnits="userSpaceOnUse" x1="137.94" x2="144.28" xlink:href="#p" y1="532.43" y2="532.43"/><linearGradient id="n" gradientUnits="userSpaceOnUse" x1="149.38" x2="155.73" xlink:href="#p" y1="540.46" y2="540.46"/><linearGradient id="o" gradientTransform="matrix(1.33 0 0 -1.33 -291.54 2288.59)" gradientUnits="userSpaceOnUse" x1="392.22" x2="979.23" y1="1298.75" y2="1637.66"><stop offset="0" stop-color="#4c3d90"/><stop offset="1" stop-color="#7b2f44" stop-opacity=".99"/></linearGradient><linearGradient id="p"><stop offset="0" stop-color="#b5b5ba"/><stop offset="1" stop-color="#828287"/></linearGradient><g stroke-width=".5"><path d="M1194.14 295.96c-247.12 138.03-493.95 276.61-741.25 414.3-39.37 20.59-82.59 1.62-114.18-23.9-87.77-60.29-176.94-118.75-263.81-180.21-29.93-27.5-12.64-77.15 23.71-88.34C343.6 281.17 587.94 143.27 833.33 7.42c41.7-19.3 81.13 8.85 113.7 32.44 86.31 59.45 174.48 116.5 259.6 177.47 22.97 22.58 16.04 64.06-12.5 78.63" fill="#c2c2c7"/><path d="M931.18 29.09c-1.21 1.15-3.27 3.08-4.99 4.7l16.97 11.49c1.95 1.33 1.95 4.17.04 5.5l-7.67 5.28c-7.59 5.23-7.54 16.46.13 21.6l153.31 103.58c13.13 8.87 30.16 9.58 44 1.86l1.82-1.02c3.46-1.91 7.67-1.73 10.96.49l10.95 7.42 10.52-.81z" fill="#dddde3"/><path d="M98.9 505.12c0 .53-.09 1.02-.22 1.42-.58 1.69-2.17 2.17-4.13 1.07-2.4-1.38-4.35-4.75-4.35-7.45 0-2 1.06-3.15 2.53-3.06.53.04 1.15.22 1.77.58 2.44 1.38 4.39 4.7 4.39 7.45" fill="#b0b0b5"/><path d="M92.56 498.51c0 2.71 1.95 6.08 4.35 7.45.62.35 1.24.53 1.77.58.13-.4.22-.89.22-1.42 0-2.75-1.95-6.08-4.35-7.45-.62-.35-1.24-.53-1.77-.58-.13.4-.22.89-.22 1.42" fill="url(#i)"/><path d="M109.99 513.06c0 .53-.09 1.02-.22 1.42-.58 1.69-2.17 2.17-4.13 1.06-2.4-1.38-4.35-4.75-4.35-7.45 0-2 1.06-3.15 2.53-3.06.53.04 1.15.22 1.77.58 2.44 1.33 4.39 4.7 4.39 7.45" fill="#b0b0b5"/><path d="M103.65 506.45c0 2.75 1.95 6.08 4.35 7.45.62.36 1.24.53 1.77.58.13-.4.22-.89.22-1.42 0-2.75-1.95-6.12-4.35-7.45-.62-.36-1.24-.53-1.77-.58-.13.4-.22.89-.22 1.42" fill="url(#j)"/><path d="M121.08 520.52c0 .53-.09 1.02-.22 1.42-.58 1.69-2.17 2.17-4.13 1.06-2.4-1.38-4.35-4.75-4.35-7.45 0-2 1.06-3.15 2.53-3.06.53.04 1.15.22 1.77.58 2.44 1.38 4.39 4.75 4.39 7.45" fill="#b0b0b5"/><path d="M114.74 513.91c0 2.71 1.95 6.08 4.35 7.45.62.35 1.24.53 1.77.58.13-.4.22-.89.22-1.42 0-2.71-1.95-6.08-4.35-7.45-.62-.35-1.24-.53-1.77-.58-.13.4-.22.89-.22 1.42" fill="url(#k)"/><path d="M132.61 528.46c0 .53-.09 1.02-.22 1.42-.58 1.69-2.17 2.17-4.13 1.07-2.4-1.38-4.35-4.75-4.35-7.45 0-2 1.06-3.15 2.53-3.06.53.04 1.15.22 1.77.58 2.44 1.38 4.39 4.7 4.39 7.45" fill="#b0b0b5"/><path d="M126.27 521.85c0 2.75 1.95 6.08 4.35 7.45.62.36 1.24.53 1.77.58.13-.4.22-.89.22-1.42 0-2.75-1.95-6.08-4.35-7.45-.62-.35-1.24-.53-1.77-.58-.13.4-.22.89-.22 1.42" fill="url(#l)"/><path d="M144.28 535.73c0 .53-.09 1.02-.22 1.42-.58 1.69-2.17 2.17-4.13 1.07-2.4-1.38-4.35-4.75-4.35-7.45 0-2 1.06-3.15 2.53-3.06.53.04 1.15.22 1.77.58 2.44 1.38 4.39 4.7 4.39 7.45" fill="#b0b0b5"/><path d="M137.94 529.12c0 2.75 1.95 6.08 4.35 7.45.62.35 1.24.53 1.77.58.13-.4.22-.89.22-1.42 0-2.75-1.95-6.08-4.35-7.45-.62-.35-1.24-.53-1.77-.58-.13.4-.22.89-.22 1.42" fill="url(#m)"/><path d="M155.73 543.76c0 .53-.09 1.02-.22 1.42-.58 1.69-2.17 2.17-4.13 1.07-2.4-1.38-4.35-4.75-4.35-7.45 0-2 1.06-3.15 2.53-3.06.53.04 1.15.22 1.77.58 2.44 1.38 4.39 4.7 4.39 7.45" fill="#b0b0b5"/><path d="M149.38 537.15c0 2.75 1.95 6.08 4.35 7.45.62.35 1.24.53 1.77.58.13-.4.22-.89.22-1.42 0-2.75-1.95-6.08-4.35-7.45-.62-.35-1.24-.53-1.77-.58-.13.4-.22.89-.22 1.42" fill="url(#n)"/><path d="M292.62 635.14c0 .53-.09 1.02-.22 1.42-.58 1.69-2.17 2.17-4.13 1.07-2.4-1.38-4.35-4.75-4.35-7.45 0-2 1.06-3.15 2.53-3.06.53.04 1.15.22 1.77.58 2.48 1.33 4.39 4.7 4.39 7.45" fill="#b0b0b5"/><path d="M286.28 628.53c0 2.71 1.95 6.08 4.35 7.45.62.35 1.24.53 1.77.58.13-.4.22-.89.22-1.42 0-2.75-1.91-6.12-4.35-7.45-.62-.35-1.24-.53-1.77-.58-.13.4-.22.89-.22 1.42" fill="url(#c)"/><path d="M303.71 643.04c0 .53-.09 1.02-.22 1.42-.58 1.69-2.17 2.17-4.13 1.06-2.4-1.38-4.35-4.75-4.35-7.45 0-2 1.06-3.15 2.53-3.06.53.04 1.15.22 1.77.58 2.48 1.38 4.39 4.7 4.39 7.45" fill="#b0b0b5"/><path d="M297.37 636.43c0 2.75 1.95 6.08 4.35 7.45.62.36 1.24.53 1.77.58.13-.4.22-.89.22-1.42 0-2.75-1.91-6.08-4.35-7.45-.62-.36-1.24-.53-1.77-.58-.13.4-.22.89-.22 1.42" fill="url(#d)"/><path d="M314.8 650.53c0 .53-.09 1.02-.22 1.42-.58 1.69-2.17 2.17-4.13 1.07-2.4-1.38-4.35-4.75-4.35-7.45 0-2 1.06-3.15 2.53-3.06.53.04 1.15.22 1.77.58 2.44 1.38 4.39 4.7 4.39 7.45" fill="#b0b0b5"/><path d="M308.46 643.92c0 2.71 1.95 6.08 4.35 7.45.62.35 1.24.53 1.77.58.13-.4.22-.89.22-1.42 0-2.75-1.95-6.08-4.35-7.45-.62-.35-1.24-.53-1.77-.58-.13.4-.22.89-.22 1.42" fill="url(#e)"/><path d="M326.33 658.47c0 .53-.09 1.02-.22 1.42-.58 1.69-2.17 2.17-4.13 1.06-2.4-1.38-4.35-4.75-4.35-7.45 0-2 1.06-3.15 2.53-3.06.53.04 1.15.22 1.77.58 2.44 1.38 4.39 4.7 4.39 7.45" fill="#b0b0b5"/><path d="M319.99 651.86c0 2.75 1.95 6.08 4.35 7.45.62.35 1.24.53 1.77.58.13-.4.22-.89.22-1.42 0-2.75-1.95-6.08-4.35-7.45-.62-.35-1.24-.53-1.77-.58-.13.4-.22.89-.22 1.42" fill="url(#f)"/><path d="M338 665.75c0 .53-.09 1.02-.22 1.42-.58 1.69-2.17 2.17-4.13 1.07-2.4-1.38-4.35-4.75-4.35-7.45 0-2 1.06-3.15 2.53-3.06.53.04 1.15.22 1.77.58 2.44 1.33 4.39 4.7 4.39 7.45" fill="#b0b0b5"/><path d="M331.66 659.14c0 2.75 1.95 6.08 4.35 7.45.62.35 1.24.53 1.77.58.13-.4.22-.89.22-1.42 0-2.75-1.95-6.12-4.35-7.45-.62-.35-1.24-.53-1.77-.58-.13.4-.22.89-.22 1.42" fill="url(#g)"/><path d="M349.44 673.78c0 .53-.09 1.02-.22 1.42-.58 1.69-2.17 2.17-4.13 1.06-2.4-1.38-4.35-4.75-4.35-7.45 0-2 1.06-3.15 2.53-3.06.53.04 1.15.22 1.77.58 2.48 1.33 4.39 4.7 4.39 7.45" fill="#b0b0b5"/><path d="M343.1 667.17c0 2.75 1.95 6.08 4.35 7.45.62.35 1.24.53 1.77.58.13-.4.22-.89.22-1.42 0-2.75-1.91-6.12-4.35-7.45-.62-.35-1.24-.53-1.77-.58-.13.4-.22.89-.22 1.42" fill="url(#h)"/><path d="M235.97 607.33l-31.36-21.91c-4.3-2.97-6.65-7.36-6.3-13.18.31-5.77 5.15-8.56 9.45-5.63l27.86 18.68c4.3 2.97 7.36 11.8 7.05 17.57-.4 5.86-2.44 7.45-6.7 4.48" fill="#b0b0b5"/><path d="M204.43 572.51c-.18 3.81 1.46 6.79 4.39 8.78l29.54 20.49c2.22 1.51 3.5 1.29 4.08-.53-.58-5.5-3.37-12.2-6.96-14.64l-27.59-18.54c-1.86.18-3.37 1.86-3.46 4.44" fill="url(#b)"/></g><path d="M194.94 569.71c0 .58-.09 1.11-.22 1.55-.62 1.82-2.4 2.35-4.44 1.15-2.57-1.51-4.7-5.1-4.7-8.07 0-2.17 1.15-3.42 2.75-3.33.58.04 1.24.22 1.91.62 2.57 1.46 4.7 5.1 4.7 8.07z" fill="none" stroke="#c9c9ce" stroke-linecap="round" stroke-linejoin="round" stroke-miterlimit="10"/><path d="M194.63 569c.02 1.2-.38 2.61-1.57 3.14-1.27.54-2.69-.07-3.71-.85-2-1.51-3.4-3.79-3.93-6.24-.26-1.29-.24-2.77.58-3.87.63-.78 1.73-1.06 2.68-.76 1.75.46 3.12 1.81 4.13 3.26 1.08 1.56 1.8 3.42 1.83 5.33z" fill="none" stroke="#adadb2" stroke-linecap="round" stroke-linejoin="round" stroke-miterlimit="10"/><path d="M189.66 563.72c-.19.36-.4.72-.58 1.09-.11.05-.22-.06-.33-.08-.36-.14-.72-.29-1.08-.43-.24-.03-.08.25-.01.36.31.51.61 1.03.92 1.54.04.2-.04.4-.05.6l-.15.96c0 .21.19.36.39.3.34-.01.69-.03 1.03-.04.16.07.24.24.36.36.33.4.67.79 1 1.19.22.09.08-.24.08-.37-.07-.51-.13-1.03-.2-1.54-.04-.16.15-.17.24-.24.27-.15.55-.29.81-.45.08-.2-.15-.31-.29-.41-.41-.3-.82-.6-1.22-.9-.22-.62-.44-1.23-.66-1.85-.04-.07-.18-.19-.25-.1z" fill="none"/><path d="M255.62 610.79c0 .58-.09 1.11-.22 1.55-.62 1.82-2.4 2.35-4.44 1.15-2.57-1.51-4.7-5.1-4.7-8.07 0-2.17 1.15-3.42 2.75-3.33.58.04 1.24.22 1.91.62 2.62 1.51 4.7 5.1 4.7 8.07z" fill="none" stroke="#c9c9ce" stroke-linecap="round" stroke-linejoin="round" stroke-miterlimit="10"/><path d="M250.39 604.84c-.19.36-.4.72-.58 1.09-.11.05-.22-.05-.33-.08-.36-.14-.72-.29-1.08-.43-.24-.03-.08.25-.01.36.31.51.61 1.03.92 1.54.04.2-.04.4-.05.59l-.15.96c0 .21.19.36.39.3.34-.01.69-.03 1.03-.04.16.07.24.24.36.36l.97 1.15c.23.17.14-.18.12-.31-.07-.52-.14-1.04-.2-1.55-.04-.16.15-.17.24-.24.27-.15.55-.29.81-.45.08-.2-.15-.31-.28-.41-.41-.3-.82-.6-1.22-.9-.22-.62-.44-1.23-.66-1.85-.04-.07-.18-.19-.25-.1z" fill="none"/><path d="M1053.61 131.16c-2.02 1.56-5.12 1.57-7.07-.11-12.28-8.37-24.59-16.69-36.85-25.08-1.67-2.29 2.1-3.8 3.95-3.64 2.12-.16 3.6 1.48 5.27 2.49 11.66 7.93 23.33 15.86 34.99 23.8.94.7.55 1.97-.29 2.55z" fill="#d6d6db"/><path d="M1053.61 131.16c-2 1.54-5.08 1.59-7.02-.08-12.3-8.38-24.62-16.72-36.9-25.12 2-1.54 5.08-1.59 7.02.08 12.3 8.38 24.62 16.72 36.9 25.12z" fill="#bfbfc4"/><path d="M1079.11 147.49c-.22.13-.4.22-.62.31-2.44 1.11-5.9 1.15-8.38.09a6.14 6.14 0 01-.89-.44c-2.75-1.6-2.75-4.17-.05-5.72 2.71-1.6 7.19-1.55 9.94 0 2.71 1.64 2.75 4.21 0 5.77" fill="#d6d6db"/><path d="M1078.49 147.84c-2.44 1.11-5.9 1.15-8.38.09-.31-.8.09-1.64 1.15-2.26 1.69-.98 4.39-.98 6.03 0 .97.58 1.42 1.38 1.2 2.17" fill="#bfbfc4"/><path d="M865.35 460.85c0 2.31-1.64 5.15-3.64 6.3-2.04 1.15-3.68.22-3.68-2.08v-.13c.05-1.91 1.2-4.13 2.71-5.46.31-.27.62-.49.93-.71 2.08-1.15 3.68-.22 3.68 2.08" fill="#b0b0b5"/><path d="M863.66 461.03c0 1.77-1.29 3.99-2.84 4.88-1.38.8-2.53.35-2.79-1.02.04-1.91 1.2-4.13 2.71-5.46.05 0 .05-.04.09-.04 1.6-.89 2.84-.18 2.84 1.64" fill="#828287"/><path d="M1097.21 329.95l-2.13-1.69c-1.33-1.02-3.19-1.11-5.23.09l-93.55 54.03c-4.08 2.35-7.36 8.65-7.36 14.06 0 2.71.84 4.7 2.17 5.72l2.22 1.77c1.33.98 3.15 1.02 5.19-.13l93.55-54.12c4.08-2.35 7.36-8.65 7.36-14.06 0-2.71-.84-4.7-2.22-5.68" fill="#bababf"/><path d="M1097.21 329.95l-2.13-1.69c-1.33-1.02-3.19-1.11-5.23.09l-93.55 54.03c-4.08 2.35-7.36 8.65-7.36 14.06 0 2.71.84 4.7 2.17 5.72l2.22 1.77c1.33.98 3.15 1.02 5.19-.13l93.55-54.12c4.08-2.35 7.36-8.65 7.36-14.06 0-2.71-.84-4.7-2.22-5.68z" fill="none" stroke="#b4b4b9" stroke-linecap="round" stroke-linejoin="round" stroke-miterlimit="10"/><path d="M1092.73 330.93c-31.42 18.18-62.9 36.26-94.29 54.5-4.79 3.86-7.82 10.97-5.66 16.98 1.11 3.27 3.63 1.15 5.49.09 29.36-16.47 58.8-32.79 88.1-49.35 4.25-2.52 9.26-4.59 11.19-9.58 1.76-3.82 3.1-8.97.2-12.55-1.37-1.4-3.54-1.03-5.04-.09z" fill="url(#a)"/><path d="M1095.44 329.69c-3.63.63-6.53 3.23-9.78 4.85-29.14 16.87-58.35 33.62-87.45 50.56-4.91 3.98-8 11.18-5.9 17.39 1.58 4 6.1 2.5 8.71.55 30.74-17.8 61.55-35.5 92.25-53.37 4.9-3.98 8-11.16 5.9-17.35-.62-1.48-2.06-2.66-3.72-2.61zm0 0c3.05 1.96 4.86 7.13 2.71 11.33-1.26 4.53-4.67 7.98-8.83 9.95-30.5 17.58-60.93 35.26-91.47 52.77-6.26 2.12-6.23-7.4-4.19-10.98 1.39-4.37 4.99-7.29 8.94-9.25 30.34-17.49 60.63-35.09 91.01-52.51.79-.61 2.24.11 1.83-1.32z" fill="#e6e6eb"/><path d="M255.36 610.12c.01 1.13-.32 2.43-1.36 3.03-1.11.64-2.48.21-3.48-.44-1.94-1.26-3.33-3.27-4.08-5.44-.46-1.43-.7-3.08-.03-4.49.44-.95 1.52-1.52 2.56-1.34 1.6.23 2.9 1.33 3.92 2.52 1.41 1.72 2.44 3.89 2.47 6.15z" fill="none" stroke="#adadb2" stroke-linecap="round" stroke-linejoin="round" stroke-miterlimit="10"/><path d="M1209.49 237.81c-1.84 8.06-6.51 14.55-13.13 18.25L457.54 669.59a86.352 86.352 0 01-42.24 11.02c-1.21 0-2.41-.03-3.62-.08a86.432 86.432 0 01-44.79-14.74L88.72 477.98c-17.12-11.29-24.51-26.76-19.02-39.21.38-.5.76-.99 1.17-1.47.08-.11.17-.22.26-.32.1-.12.2-.24.31-.36.14.14.18.36.08.54-.72 1.26-1.3 2.56-1.73 3.88-1.26 3.88-1.3 8.02-.2 12.2 0 .02.01.04.01.05 1.22 4.57 3.78 9.2 7.57 13.59.03.04.06.07.09.1 3.16 3.64 7.16 7.11 11.94 10.26l278.19 187.82c14.51 9.8 31.16 14.74 47.87 14.74 14.35 0 28.74-3.64 41.85-10.99l738.81-413.52c3.24-1.81 6-4.32 8.15-7.36 2.12-2.97 3.67-6.45 4.55-10.32 1.59-6.96.83-14.24-1.99-20.29.21.21.42.43.62.65.01 0 .01 0 .01.01.39.42.77.84 1.13 1.26 2.1 5.72 2.53 12.27 1.1 18.56" fill="#e8e8ed"/><path d="M1183.45 250.58l-730.69 407.8c-24.84 13.88-55.41 12.55-78.96-3.37L97.88 468.74c-14.68-9.94-13.75-31.85 1.73-40.5L831.72 19.6c24.71-13.8 55.05-12.47 78.47 3.37l32.96 22.31c4.58 4.68-4.17 8.4-7.63 10.78-7.59 5.23-7.54 16.46.13 21.6l153.31 103.59c13.13 8.87 30.05 9.38 44 1.86 5.78-3.33 9.42-2.7 12.78-.53l39.48 26.75c14.99 10.11 14.02 32.47-1.77 41.25" fill="url(#o)"/></svg>